<?xml version="1.0" encoding="UTF-8"?>
<svg xmlns="http://www.w3.org/2000/svg" xmlns:xlink="http://www.w3.org/1999/xlink" width="384pt" height="383.999986pt" viewBox="0 0 384 383.999986" version="1.2">
<defs>
<clipPath id="clip1">
  <path d="M 58.300781 6 L 326 6 L 326 246 L 58.300781 246 Z M 58.300781 6 "/>
</clipPath>
</defs>
<g id="surface1">
<g clip-path="url(#clip1)" clip-rule="nonzero">
<path style=" stroke:none;fill-rule:nonzero;fill:rgb(0%,44.709778%,100%);fill-opacity:1;" d="M 120.835938 245.546875 L 263.203125 245.546875 C 265.867188 245.582031 268.523438 245.445312 271.171875 245.136719 C 273.820312 244.828125 276.4375 244.351562 279.023438 243.707031 C 281.609375 243.0625 284.140625 242.253906 286.625 241.285156 C 289.105469 240.3125 291.515625 239.183594 293.851562 237.902344 C 296.1875 236.621094 298.433594 235.195312 300.585938 233.625 C 302.738281 232.050781 304.78125 230.347656 306.710938 228.515625 C 308.644531 226.679688 310.453125 224.730469 312.132812 222.660156 C 313.8125 220.59375 315.355469 218.425781 316.753906 216.160156 C 319.894531 210.503906 322.171875 204.523438 323.585938 198.210938 C 325 191.902344 325.496094 185.519531 325.070312 179.066406 C 325.070312 98.625 265.199219 6.214844 192.019531 6.214844 C 118.839844 6.214844 58.964844 98.625 58.964844 179.066406 C 58.542969 185.519531 59.039062 191.902344 60.453125 198.210938 C 61.867188 204.523438 64.144531 210.503906 67.28125 216.160156 C 68.683594 218.425781 70.222656 220.59375 71.902344 222.660156 C 73.585938 224.730469 75.390625 226.679688 77.324219 228.515625 C 79.257812 230.347656 81.300781 232.050781 83.453125 233.625 C 85.605469 235.195312 87.847656 236.621094 90.183594 237.902344 C 92.519531 239.183594 94.929688 240.3125 97.414062 241.285156 C 99.894531 242.253906 102.429688 243.0625 105.015625 243.707031 C 107.601562 244.351562 110.21875 244.828125 112.867188 245.136719 C 115.511719 245.445312 118.167969 245.582031 120.835938 245.546875 Z M 103.605469 155 C 103.757812 158.125 104.277344 161.1875 105.167969 164.1875 C 106.054688 167.191406 107.289062 170.042969 108.859375 172.75 C 109.796875 174.261719 110.824219 175.707031 111.945312 177.085938 C 113.066406 178.464844 114.269531 179.765625 115.558594 180.992188 C 116.847656 182.214844 118.210938 183.351562 119.648438 184.398438 C 121.082031 185.449219 122.578125 186.402344 124.136719 187.257812 C 125.695312 188.113281 127.304688 188.863281 128.960938 189.511719 C 130.617188 190.160156 132.304688 190.699219 134.03125 191.132812 C 135.757812 191.5625 137.503906 191.878906 139.269531 192.085938 C 141.035156 192.292969 142.808594 192.382812 144.585938 192.363281 L 239.453125 192.363281 C 241.226562 192.386719 243 192.296875 244.765625 192.09375 C 246.527344 191.886719 248.273438 191.574219 250 191.144531 C 251.722656 190.714844 253.410156 190.179688 255.066406 189.53125 C 256.722656 188.886719 258.328125 188.136719 259.886719 187.285156 C 261.445312 186.433594 262.941406 185.484375 264.378906 184.4375 C 265.816406 183.394531 267.179688 182.257812 268.46875 181.039062 C 269.757812 179.816406 270.964844 178.519531 272.085938 177.144531 C 273.210938 175.765625 274.238281 174.324219 275.175781 172.816406 C 276.75 170.109375 277.980469 167.257812 278.871094 164.253906 C 279.757812 161.253906 280.277344 158.191406 280.433594 155.066406 L 280.433594 161.714844 C 280.71875 166.015625 280.390625 170.269531 279.453125 174.476562 C 278.511719 178.683594 277 182.671875 274.910156 186.445312 C 273.96875 187.929688 272.9375 189.347656 271.816406 190.699219 C 270.695312 192.050781 269.492188 193.328125 268.207031 194.527344 C 266.921875 195.726562 265.566406 196.839844 264.140625 197.863281 C 262.714844 198.890625 261.226562 199.824219 259.683594 200.660156 C 258.136719 201.5 256.542969 202.234375 254.90625 202.867188 C 253.265625 203.503906 251.59375 204.03125 249.886719 204.453125 C 248.179688 204.875 246.453125 205.1875 244.707031 205.386719 C 242.960938 205.589844 241.210938 205.679688 239.453125 205.65625 L 144.585938 205.65625 C 142.808594 205.683594 141.039062 205.59375 139.273438 205.386719 C 137.507812 205.183594 135.761719 204.867188 134.039062 204.441406 C 132.316406 204.011719 130.625 203.476562 128.96875 202.828125 C 127.316406 202.183594 125.707031 201.433594 124.148438 200.582031 C 122.589844 199.730469 121.09375 198.78125 119.65625 197.734375 C 118.222656 196.6875 116.859375 195.554688 115.570312 194.335938 C 114.277344 193.113281 113.070312 191.816406 111.949219 190.441406 C 110.828125 189.0625 109.796875 187.621094 108.859375 186.113281 C 106.773438 182.339844 105.257812 178.351562 104.320312 174.144531 C 103.378906 169.9375 103.054688 165.683594 103.339844 161.382812 C 103.339844 159.121094 103.472656 157.125 103.605469 155 Z M 103.605469 155 "/>
</g>
<path style=" stroke:none;fill-rule:nonzero;fill:rgb(0%,44.709778%,100%);fill-opacity:1;" d="M 133.609375 272.136719 L 117.375 272.136719 C 117.058594 272.136719 116.742188 272.167969 116.429688 272.230469 C 116.117188 272.292969 115.8125 272.386719 115.515625 272.507812 C 115.222656 272.628906 114.941406 272.777344 114.675781 272.957031 C 114.414062 273.132812 114.167969 273.335938 113.941406 273.558594 C 113.714844 273.785156 113.515625 274.03125 113.335938 274.296875 C 113.160156 274.558594 113.011719 274.839844 112.890625 275.132812 C 112.765625 275.429688 112.675781 275.730469 112.613281 276.042969 C 112.550781 276.355469 112.519531 276.671875 112.519531 276.992188 L 85.574219 373.65625 C 85.574219 373.972656 85.605469 374.289062 85.667969 374.601562 C 85.730469 374.914062 85.824219 375.21875 85.945312 375.511719 C 86.066406 375.804688 86.21875 376.085938 86.394531 376.351562 C 86.570312 376.617188 86.773438 376.859375 87 377.085938 C 87.222656 377.3125 87.46875 377.511719 87.734375 377.691406 C 88 377.867188 88.28125 378.015625 88.574219 378.136719 C 88.867188 378.261719 89.171875 378.351562 89.484375 378.414062 C 89.796875 378.476562 90.113281 378.507812 90.433594 378.507812 L 95.554688 378.507812 C 96.140625 378.503906 96.707031 378.402344 97.253906 378.195312 C 97.800781 377.988281 98.292969 377.691406 98.730469 377.308594 C 99.171875 376.921875 99.53125 376.472656 99.808594 375.957031 C 100.085938 375.445312 100.265625 374.898438 100.34375 374.320312 L 138.464844 277.589844 C 138.507812 277.246094 138.511719 276.902344 138.480469 276.558594 C 138.453125 276.214844 138.386719 275.878906 138.28125 275.546875 C 138.179688 275.21875 138.042969 274.902344 137.871094 274.601562 C 137.703125 274.300781 137.503906 274.023438 137.273438 273.765625 C 137.042969 273.507812 136.789062 273.277344 136.507812 273.070312 C 136.230469 272.867188 135.933594 272.695312 135.617188 272.554688 C 135.300781 272.414062 134.972656 272.308594 134.632812 272.238281 C 134.296875 272.167969 133.953125 272.136719 133.609375 272.136719 Z M 133.609375 272.136719 "/>
<path style=" stroke:none;fill-rule:nonzero;fill:rgb(0%,44.709778%,100%);fill-opacity:1;" d="M 288.546875 378.507812 L 293.671875 378.507812 C 293.988281 378.507812 294.304688 378.476562 294.617188 378.414062 C 294.929688 378.351562 295.234375 378.261719 295.53125 378.136719 C 295.824219 378.015625 296.105469 377.867188 296.367188 377.691406 C 296.632812 377.511719 296.878906 377.3125 297.105469 377.085938 C 297.332031 376.859375 297.53125 376.617188 297.710938 376.351562 C 297.886719 376.085938 298.035156 375.804688 298.15625 375.511719 C 298.28125 375.21875 298.371094 374.914062 298.433594 374.601562 C 298.496094 374.289062 298.527344 373.972656 298.527344 373.65625 L 271.453125 276.992188 C 271.453125 276.671875 271.421875 276.355469 271.359375 276.042969 C 271.296875 275.730469 271.203125 275.429688 271.082031 275.132812 C 270.960938 274.839844 270.808594 274.558594 270.632812 274.296875 C 270.457031 274.03125 270.253906 273.785156 270.027344 273.558594 C 269.804688 273.335938 269.558594 273.132812 269.292969 272.957031 C 269.027344 272.777344 268.746094 272.628906 268.453125 272.507812 C 268.160156 272.386719 267.855469 272.292969 267.542969 272.230469 C 267.230469 272.167969 266.914062 272.136719 266.59375 272.136719 L 250.429688 272.136719 C 250.082031 272.140625 249.742188 272.179688 249.402344 272.253906 C 249.066406 272.328125 248.738281 272.4375 248.425781 272.582031 C 248.109375 272.726562 247.8125 272.902344 247.535156 273.109375 C 247.257812 273.316406 247.007812 273.550781 246.78125 273.8125 C 246.554688 274.074219 246.359375 274.355469 246.191406 274.65625 C 246.023438 274.960938 245.890625 275.277344 245.792969 275.609375 C 245.695312 275.941406 245.632812 276.28125 245.605469 276.625 C 245.582031 276.96875 245.589844 277.3125 245.640625 277.65625 L 283.757812 374.386719 C 283.847656 374.957031 284.03125 375.5 284.3125 376.003906 C 284.589844 376.511719 284.953125 376.953125 285.390625 377.332031 C 285.828125 377.710938 286.320312 378 286.863281 378.203125 C 287.40625 378.40625 287.96875 378.507812 288.546875 378.507812 Z M 288.546875 378.507812 "/>
</g>
</svg>
