<?xml version="1.0" encoding="UTF-8"?>
<svg xmlns="http://www.w3.org/2000/svg" xmlns:xlink="http://www.w3.org/1999/xlink" width="384pt" height="383.999986pt" viewBox="0 0 384 383.999986" version="1.2">
<defs>
<clipPath id="clip1">
  <path d="M 57 76 L 327 76 L 327 372.597656 L 57 372.597656 Z M 57 76 "/>
</clipPath>
<clipPath id="clip2">
  <path d="M 0.660156 11.097656 L 383.160156 11.097656 L 383.160156 203 L 0.660156 203 Z M 0.660156 11.097656 "/>
</clipPath>
</defs>
<g id="surface1">
<g clip-path="url(#clip1)" clip-rule="nonzero">
<path style=" stroke:none;fill-rule:nonzero;fill:rgb(100%,100%,100%);fill-opacity:1;" d="M 326.101562 194.851562 Z M 326.101562 194.851562 L 191.953125 76.089844 L 57.71875 194.902344 L 57.71875 364.671875 C 57.71875 369.058594 61.265625 372.574219 65.648438 372.574219 L 149.539062 372.574219 L 149.539062 298.136719 C 149.539062 293.753906 153.058594 290.210938 157.441406 290.210938 L 226.371094 290.210938 C 230.757812 290.210938 234.277344 293.753906 234.277344 298.136719 L 234.277344 372.574219 L 318.191406 372.574219 C 322.578125 372.574219 326.09375 369.058594 326.09375 364.671875 L 326.09375 194.84375 Z M 57.71875 194.902344 Z M 57.71875 194.902344 "/>
</g>
<g clip-path="url(#clip2)" clip-rule="nonzero">
<path style=" stroke:none;fill-rule:nonzero;fill:rgb(100%,100%,100%);fill-opacity:1;" d="M 191.167969 11.097656 L 0.792969 179.597656 L 20.84375 202.214844 L 191.949219 50.761719 L 363.011719 202.214844 L 383.027344 179.597656 L 192.691406 11.097656 L 191.953125 11.953125 L 191.171875 11.097656 Z M 191.167969 11.097656 "/>
</g>
<path style=" stroke:none;fill-rule:nonzero;fill:rgb(100%,100%,100%);fill-opacity:1;" d="M 57.71875 35.351562 L 105.980469 35.351562 L 105.558594 63.925781 L 57.71875 107.128906 Z M 57.71875 35.351562 "/>
</g>
</svg>
