<?xml version="1.0" encoding="UTF-8"?>
<svg xmlns="http://www.w3.org/2000/svg" xmlns:xlink="http://www.w3.org/1999/xlink" width="384pt" height="383.999986pt" viewBox="0 0 384 383.999986" version="1.2">
<defs>
<clipPath id="clip1">
  <path d="M 58.8125 4.082031 L 325 4.082031 L 325 379.832031 L 58.8125 379.832031 Z M 58.8125 4.082031 "/>
</clipPath>
</defs>
<g id="surface1">
<g clip-path="url(#clip1)" clip-rule="nonzero">
<path style=" stroke:none;fill-rule:nonzero;fill:rgb(100%,100%,100%);fill-opacity:1;" d="M 191.9375 379.832031 C 190.105469 379.832031 188.289062 379.1875 186.816406 377.921875 C 181.589844 373.410156 58.886719 265.820312 58.886719 137.160156 C 58.886719 63.777344 118.570312 4.082031 191.9375 4.082031 C 265.300781 4.082031 324.984375 63.777344 324.984375 137.160156 C 324.984375 265.820312 202.28125 373.410156 197.054688 377.921875 C 195.582031 379.1875 193.769531 379.832031 191.9375 379.832031 Z M 191.9375 19.738281 C 127.195312 19.738281 74.539062 72.402344 74.539062 137.160156 C 74.539062 244.277344 168.707031 339.53125 191.9375 361.386719 C 215.148438 339.515625 309.332031 244.152344 309.332031 137.160156 C 309.332031 72.402344 256.675781 19.738281 191.9375 19.738281 Z M 191.9375 19.738281 "/>
</g>
<path style=" stroke:none;fill-rule:nonzero;fill:rgb(100%,100%,100%);fill-opacity:1;" d="M 238.894531 207.613281 L 207.589844 207.613281 C 203.269531 207.613281 199.761719 204.105469 199.761719 199.785156 L 199.761719 160.644531 L 184.109375 160.644531 L 184.109375 199.785156 C 184.109375 204.105469 180.605469 207.613281 176.285156 207.613281 L 144.976562 207.613281 C 140.65625 207.613281 137.152344 204.105469 137.152344 199.785156 L 137.152344 144.988281 L 129.324219 144.988281 C 126.164062 144.988281 123.300781 143.078125 122.09375 140.148438 C 120.875 137.222656 121.546875 133.871094 123.785156 131.617188 L 186.394531 68.992188 C 189.449219 65.9375 194.410156 65.9375 197.460938 68.992188 L 260.074219 131.617188 C 262.3125 133.855469 262.984375 137.222656 261.765625 140.148438 C 260.574219 143.078125 257.710938 144.988281 254.546875 144.988281 L 246.722656 144.988281 L 246.722656 199.785156 C 246.722656 204.105469 243.214844 207.613281 238.894531 207.613281 Z M 215.414062 191.957031 L 231.070312 191.957031 L 231.070312 137.160156 C 231.070312 133.808594 233.183594 130.941406 236.15625 129.832031 L 191.9375 85.601562 L 147.71875 129.832031 C 150.691406 130.941406 152.804688 133.808594 152.804688 137.160156 L 152.804688 191.957031 L 168.457031 191.957031 L 168.457031 152.816406 C 168.457031 148.492188 171.964844 144.988281 176.285156 144.988281 L 207.589844 144.988281 C 211.910156 144.988281 215.414062 148.492188 215.414062 152.816406 Z M 215.414062 191.957031 "/>
</g>
</svg>
