<?xml version="1.0" encoding="UTF-8"?>
<svg xmlns="http://www.w3.org/2000/svg" xmlns:xlink="http://www.w3.org/1999/xlink" width="384pt" height="383.999986pt" viewBox="0 0 384 383.999986" version="1.2">
<defs>
<clipPath id="clip1">
  <path d="M 31.257812 8.773438 L 352.925781 8.773438 L 352.925781 375.523438 L 31.257812 375.523438 Z M 31.257812 8.773438 "/>
</clipPath>
</defs>
<g id="surface1">
<g clip-path="url(#clip1)" clip-rule="nonzero">
<path style=" stroke:none;fill-rule:nonzero;fill:rgb(100%,100%,100%);fill-opacity:1;" d="M 332.511719 375.523438 L 135.03125 375.523438 C 123.828125 375.523438 114.582031 366.242188 114.582031 355.042969 C 114.582031 343.839844 123.828125 334.59375 135.03125 334.59375 L 312.0625 334.59375 L 312.0625 146.921875 L 192.109375 49.992188 L 72.15625 146.921875 L 72.15625 355.042969 C 72.15625 366.242188 62.875 375.523438 51.707031 375.523438 C 40.507812 375.523438 31.257812 366.242188 31.257812 355.042969 L 31.257812 146.140625 C 31.257812 134.550781 36.664062 123.347656 45.519531 116.023438 L 167.785156 17.171875 C 181.6875 5.972656 202.136719 5.972656 216.007812 17.171875 L 338.664062 116.023438 C 347.910156 123.347656 352.925781 134.160156 352.925781 146.140625 L 352.925781 355.433594 C 352.925781 366.242188 343.679688 375.523438 332.511719 375.523438 "/>
</g>
</g>
</svg>
